Coordinates
version=1
nRows=29
nColumns=24
inDegrees=yes

Units are S.I. units (second, meters, Newtons, ...)
Angles are in degrees.

endheader
time	pelvis_tilt	pelvis_list	pelvis_rotation	pelvis_tx	pelvis_ty	pelvis_tz	hip_flexion_r	hip_adduction_r	hip_rotation_r	knee_angle_r	ankle_angle_r	subtalar_angle_r	mtp_angle_r	hip_flexion_l	hip_adduction_l	hip_rotation_l	knee_angle_l	ankle_angle_l	subtalar_angle_l	mtp_angle_l	lumbar_extension	lumbar_bending	lumbar_rotation
      0.47100000	     -2.28427750	      5.65117099	     -1.15858521	     -0.81364759	      1.05409378	      0.30809029	     25.96254805	     -1.86386410	     -7.05386047	     -3.72547406	      5.52395643	     -0.71444439	      0.13022906	     -9.48946684	     10.65064351	     -1.04599146	     -7.82152629	      9.67870804	     -0.19661484	      0.15067278	      5.52606122	     -4.32963140	     -1.07513648
      0.47516667	     -2.29545073	      5.65652293	     -1.12058968	     -0.80766726	      1.05368026	      0.30804933	     25.88507023	     -1.82748930	     -6.95820668	     -3.89899749	      5.51851434	     -0.68538671	      0.13538475	     -9.61538165	     10.62475340	     -1.04372128	     -8.25154105	      9.64301003	     -0.21787475	      0.14560232	      5.61117106	     -4.30597236	     -1.10373555
      0.47933333	     -2.29009124	      5.65277324	     -1.08310845	     -0.80163671	      1.05330832	      0.30801271	     25.78858527	     -1.78641304	     -6.82491933	     -4.13096594	      5.52132208	     -0.64346934	      0.14169707	     -9.73889726	     10.58267836	     -1.06449793	     -8.72560849	      9.58882384	     -0.19747859	      0.14212339	      5.69274181	     -4.27696916	     -1.13351875
      0.48350000	     -2.23284963	      5.62922780	     -1.17292104	     -0.79547099	      1.05298052	      0.30833145	     25.62465258	     -1.65707063	     -6.41273825	     -4.38457733	      5.63168654	     -0.50948272	      0.17953817	     -9.89205378	     10.51324323	     -1.42028186	     -9.22346298	      9.38850705	      0.21673918	      0.13444262	      5.69490923	     -4.29051048	     -1.30850972
      0.48766667	     -2.19782209	      5.63960113	     -1.13588797	     -0.78942174	      1.05267553	      0.30822925	     25.51362845	     -1.64507440	     -6.29275330	     -4.73759420	      5.60224923	     -0.50281342	      0.18589583	     -9.99787700	     10.47943603	     -1.43447028	     -9.79360865	      9.35329039	      0.27897838	      0.13584125	      5.77614611	     -4.24368795	     -1.32185921
      0.49183333	     -2.14759947	      5.63875914	     -1.20868891	     -0.78333225	      1.05236317	      0.30865624	     25.37340586	     -1.53727174	     -5.85067843	     -5.08167556	      5.52358948	     -0.52653119	      0.22958419	    -10.05914075	     10.40244811	     -1.90550682	    -10.45392622	      9.18198277	      1.03558162	      0.15861538	      5.64132531	     -4.28838324	     -1.41871890
      0.49600000	     -2.00601369	      5.59497982	     -1.28182363	     -0.77712053	      1.05223530	      0.30904371	     25.10356595	     -1.39760106	     -5.39982292	     -5.40675773	      5.36134732	     -0.87517398	      0.30084492	    -10.21616386	     10.27313578	     -2.30086285	    -11.14248889	      9.26775554	      1.97150932	      0.22259804	      5.69375801	     -4.26303854	     -1.46251530
      0.50016667	     -1.95252565	      5.59554421	     -1.22870164	     -0.77098947	      1.05202549	      0.30891029	     24.95833144	     -1.39300456	     -5.24945575	     -5.82204856	      5.29959784	     -0.87493673	      0.30853437	    -10.25350275	     10.20218474	     -2.32905714	    -11.89336631	      9.19470986	      2.01337837	      0.22949024	      5.75904260	     -4.19004858	     -1.46440244
      0.50433333	     -1.87464507	      5.60903563	     -1.36518779	     -0.76489754	      1.05176543	      0.30943775	     24.80365177	     -1.28287243	     -4.74295261	     -6.23410128	      4.92988152	     -1.15694340	      0.36962555	    -10.24684672	     10.12390547	     -2.86350547	    -12.71421264	      8.85467110	      2.94039408	      0.31270544	      5.67997474	     -4.22551562	     -1.47412743
      0.50850000	     -1.80287164	      5.58405664	     -1.29248168	     -0.75872128	      1.05164217	      0.30933358	     24.61206531	     -1.26263965	     -4.57132366	     -6.63539073	      4.85757161	     -1.16228539	      0.37829300	    -10.22766369	      9.99698706	     -2.93339467	    -13.62060218	      8.78256751	      3.00158042	      0.32501731	      5.75118768	     -4.14223589	     -1.47225636
      0.51266667	     -1.70591290	      5.55641106	     -1.45097477	     -0.75254975	      1.05146094	      0.31005310	     24.41345893	     -1.09229743	     -4.03650676	     -7.02264852	      4.28523068	     -1.65262355	      0.44436222	    -10.16427417	      9.83667542	     -3.60068161	    -14.58982409	      8.38913247	      4.29667800	      0.45871537	      5.63620459	     -4.11918823	     -1.47796636
      0.51683333	     -1.62451242	      5.48718215	     -1.47029568	     -0.74633637	      1.05136434	      0.31057738	     24.17928892	     -0.93975144	     -3.58418464	     -7.35660167	      3.88160810	     -2.32160578	      0.52983505	    -10.05089398	      9.59810797	     -4.06251436	    -15.68442188	      8.32329175	      5.22998538	      0.64709346	      5.57554737	     -4.02567367	     -1.43922296
      0.52100000	     -1.53980894	      5.43884652	     -1.49670931	     -0.74016887	      1.05127245	      0.31090606	     23.96684033	     -0.83422730	     -3.24308137	     -7.73058252	      3.48005409	     -2.62746427	      0.60026422	     -9.91074584	      9.39707449	     -4.39621209	    -16.80369986	      7.98505541	      5.84647254	      0.80533588	      5.56962751	     -3.98704269	     -1.40860614
      0.52516667	     -1.46027229	      5.36911442	     -1.52831954	     -0.73398383	      1.05118681	      0.31128752	     23.75594329	     -0.70355891	     -2.93217226	     -8.10275398	      3.04501465	     -3.00969137	      0.67467414	     -9.72206817	      9.15697703	     -4.77143138	    -18.00374428	      7.61009239	      6.58500449	      0.99241110	      5.54465945	     -3.87517876	     -1.39421187
      0.52933333	     -1.39205769	      5.30208669	     -1.56029100	     -0.72786861	      1.05108985	      0.31169177	     23.56401222	     -0.57646290	     -2.62583670	     -8.48101429	      2.58874439	     -3.42093565	      0.74987703	     -9.47000840	      8.90671041	     -5.13353453	    -19.29635346	      7.20843894	      7.32713272	      1.19836764	      5.52154655	     -3.78601277	     -1.37564464
      0.53350000	     -1.29717428	      5.20445282	     -1.58254502	     -0.72171951	      1.05106363	      0.31211120	     23.32699629	     -0.42416291	     -2.33299233	     -8.83869361	      2.12997017	     -3.87352828	      0.83054327	     -9.21424006	      8.60792415	     -5.47813288	    -20.64661799	      6.75110904	      8.08002858	      1.43556172	      5.49318458	     -3.66384459	     -1.35763545
      0.53766667	     -1.23237165	      5.11038127	     -1.60423599	     -0.71563340	      1.05098314	      0.31247412	     23.13722026	     -0.28482293	     -2.09506126	     -9.22247542	      1.71068112	     -4.25641905	      0.90198698	     -8.87876646	      8.31091343	     -5.78197676	    -22.07028936	      6.25709069	      8.72351637	      1.65868749	      5.46091607	     -3.52236316	     -1.34352392
      0.54183333	     -1.15235340	      4.98017909	     -1.61257181	     -0.70952420	      1.05095448	      0.31287365	     22.91801627	     -0.11322204	     -1.88814042	     -9.59202237	      1.28251612	     -4.64885630	      0.97464572	     -8.52305893	      7.95528544	     -6.07490321	    -23.55683254	      5.70069708	      9.40732564	      1.90026095	      5.43256627	     -3.36217927	     -1.32859940
      0.54600000	     -1.07461694	      4.84182891	     -1.62830962	     -0.70346566	      1.05091349	      0.31324611	     22.70671799	      0.06209763	     -1.69425164	     -9.96877576	      0.87268104	     -5.06006087	      1.04926829	     -8.12627048	      7.58922803	     -6.33340169	    -25.10143615	      5.09858152	     10.07062308	      2.16254464	      5.40115073	     -3.17773352	     -1.31368581
      0.55016667	     -0.97710465	      4.64661701	     -1.63780074	     -0.69730908	      1.05093916	      0.31373733	     22.44646720	      0.30397895	     -1.52811069	    -10.30783616	      0.43378983	     -5.61077346	      1.16106720	     -7.72638752	      7.13703920	     -6.61322187	    -26.69999282	      4.50445410	     10.76709888	      2.57178819	      5.45735384	     -3.06366737	     -1.26314673
      0.55433333	     -0.90784468	      4.51565885	     -1.65791638	     -0.69147211	      1.05085946	      0.31392527	     22.27964130	      0.44214318	     -1.42323941	    -10.74566861	      0.17957459	     -5.76628426	      1.21645768	     -7.23535211	      6.79183189	     -6.74729431	    -28.36351484	      3.92225208	     11.15986750	      2.77305233	      5.30086310	     -2.73649154	     -1.28283070
      0.55850000	     -0.84648461	      4.31187004	     -1.64253979	     -0.68547038	      1.05082539	      0.31421612	     22.07951028	      0.65770121	     -1.37707314	    -11.12901704	     -0.12893141	     -6.02130582	      1.27830083	     -6.71874206	      6.33732127	     -6.88387966	    -30.05698316	      3.15709472	     11.70852659	      3.01233356	      5.27802880	     -2.48223216	     -1.26644662
      0.56266667	     -0.80542633	      4.06466750	     -1.63413031	     -0.67940766	      1.05078383	      0.31476119	     21.86208090	      0.94631549	     -1.20628822	    -11.43506474	     -0.56917686	     -6.67491654	      1.46272858	     -6.15524759	      5.80421506	     -7.04608246	    -31.80456500	      2.54640749	     12.33832928	      3.75382901	      5.38482592	     -2.32935552	     -1.18835099
      0.56683333	     -0.73468361	      3.82827832	     -1.59901189	     -0.67354752	      1.05077955	      0.31502800	     21.64481403	      1.18071919	     -1.19321972	    -11.79584218	     -0.85970597	     -6.90261862	      1.80330202	     -5.57876854	      5.30892489	     -7.08260701	    -33.58348870	      1.74958222	     12.76136849	      5.06944302	      5.31739924	     -2.05217349	     -1.14119583
      0.57100000	     -0.64266424	      3.62255852	     -1.68172564	     -0.66782221	      1.05074434	      0.31508991	     21.46914337	      1.38154449	     -1.29785159	    -12.27666099	     -0.90774934	     -6.87141802	      1.84394166	     -5.00594060	      4.90658108	     -7.15620280	    -35.36627429	      1.19218271	     12.94566964	      5.21414996	      5.13347733	     -1.59117391	     -1.18527094
      0.57516667	     -0.55281241	      3.33516785	     -1.64845552	     -0.66194294	      1.05080955	      0.31519274	     21.22967757	      1.64537256	     -1.50319135	    -12.65539913	     -1.02933937	     -6.92403747	      1.90607516	     -4.41460291	      4.37974728	     -7.12277934	    -37.16069587	      0.37442838	     13.27289080	      5.44885368	      5.09890852	     -1.24793925	     -1.16421903
      0.57933333	     -0.49769186	      3.05954129	     -1.63659290	     -0.65619476	      1.05081495	      0.31530972	     21.03193494	      1.90125873	     -1.63249417	    -13.02913711	     -1.13541685	     -6.98441985	      1.97103032	     -3.75410406	      3.87314164	     -7.06406756	    -38.98267707	     -0.28208335	     13.50856972	      5.69457399	      5.04074036	     -0.87471061	     -1.14765561
      0.58350000	     -0.39030186	      2.78097684	     -1.73451638	     -0.65052610	      1.05086289	      0.31564517	     20.78047038	      2.20100991	     -1.60680405	    -13.39079932	     -1.18182769	     -6.90484343	      1.98997818	     -3.14081906	      3.36954088	     -7.10663082	    -40.80894249	     -0.62165755	     13.56005707	      5.75390388	      4.88662124	     -0.63623206	     -1.15448538
      0.58766667	     -0.31699369	      2.48592270	     -1.76755423	     -0.64492001	      1.05090925	      0.31584997	     20.55329103	      2.49071584	     -1.67382264	    -13.73794258	     -1.20604727	     -6.85965689	      2.01096491	     -2.46130774	      2.85316197	     -7.03725703	    -42.63620545	     -1.09765347	     13.65617482	      5.81795950	      4.71832023	     -0.25958247	     -1.15747542
